<svg xmlns="http://www.w3.org/2000/svg" width="96" height="96" fill="none" viewBox="0 0 96 96" id="link"><path fill="url(#paint0_linear_821_9710)" fill-rule="evenodd" d="M64.6458 51.8722C58.7005 57.8175 49.0613 57.8175 43.116 51.8722C42.1397 50.8959 40.5567 50.8959 39.5804 51.8722C38.6041 52.8485 38.6041 54.4314 39.5804 55.4077C47.4784 63.3056 60.2835 63.3056 68.1814 55.4077L82.7776 40.8115C90.6755 32.9136 90.6755 20.1085 82.7776 12.2106C74.8797 4.31263 62.0746 4.31262 54.1767 12.2105L47.387 19.0002C46.4107 19.9765 46.4107 21.5594 47.387 22.5357C48.3633 23.512 49.9462 23.512 50.9226 22.5357L57.7122 15.7461C63.6575 9.80078 73.2967 9.80078 79.2421 15.7461C85.1874 21.6914 85.1874 31.3307 79.2421 37.276L64.6458 51.8722ZM12.5795 82.896C20.4774 90.7939 33.2825 90.7939 41.1804 82.896L48.4778 75.5986C49.4541 74.6223 49.4541 73.0394 48.4778 72.0631C47.5015 71.0868 45.9185 71.0868 44.9422 72.0631L37.6449 79.3605C31.6996 85.3058 22.0603 85.3058 16.115 79.3605C10.1697 73.4152 10.1697 63.7759 16.115 57.8306L23.9208 50.0248L30.7097 43.2358C36.6551 37.2905 46.2943 37.2905 52.2396 43.2358C53.2159 44.2122 54.7988 44.2122 55.7751 43.2358C56.7515 42.2595 56.7515 40.6766 55.7751 39.7003C47.8772 31.8024 35.0721 31.8024 27.1742 39.7003L20.3853 46.4892L12.5795 54.2951C4.68152 62.193 4.68152 74.9981 12.5795 82.896Z" clip-rule="evenodd"></path><defs><linearGradient id="paint0_linear_821_9710" x1="47.678" x2="47.678" y1="6.287" y2="88.819" gradientUnits="userSpaceOnUse"><stop stop-color="#09A4FB"></stop><stop offset="1" stop-color="#3840F3"></stop></linearGradient></defs></svg>